<?xml version="1.0" standalone="no"?>
<!DOCTYPE svg PUBLIC "-//W3C//DTD SVG 20010904//EN"
 "http://www.w3.org/TR/2001/REC-SVG-20010904/DTD/svg10.dtd">
<svg version="1.0" xmlns="http://www.w3.org/2000/svg"
 width="960.000000pt" height="640.000000pt" viewBox="0 0 960.000000 640.000000"
 preserveAspectRatio="xMidYMid meet">

<g transform="translate(0.000000,640.000000) scale(0.100000,-0.100000)"
fill="#000000" stroke="none">
<path d="M7254 6149 c-3 -6 -61 -37 -128 -69 -66 -32 -247 -119 -401 -195
-210 -102 -287 -135 -306 -131 -21 4 -29 0 -37 -20 -11 -23 -7 -28 81 -92 114
-85 122 -94 107 -121 -6 -12 -13 -21 -16 -21 -3 0 -2 6 2 13 5 8 2 8 -9 -2
-18 -15 -23 -26 -7 -16 6 3 10 2 10 -4 0 -5 -5 -11 -12 -13 -6 -2 -11 -18 -11
-36 0 -20 -5 -32 -14 -32 -7 0 -13 -11 -13 -23 0 -13 -9 -32 -20 -42 -11 -10
-20 -22 -20 -27 0 -15 -57 -88 -64 -81 -3 3 -6 -2 -6 -11 0 -10 -16 -41 -36
-70 -20 -28 -24 -37 -10 -21 14 17 43 55 63 85 21 30 64 92 95 137 58 82 71
106 43 83 -10 -9 -15 -9 -15 -1 0 10 14 15 33 12 4 0 23 21 43 49 20 27 38 50
41 50 23 0 -60 -135 -219 -355 -16 -22 -80 -114 -143 -205 -118 -171 -130
-188 -246 -355 -63 -90 -87 -115 -90 -92 -1 9 89 146 200 306 55 79 69 107 60
115 -9 8 -10 8 -5 -1 4 -8 -4 -24 -18 -38 -14 -14 -25 -27 -23 -30 1 -2 -6
-14 -15 -25 -10 -11 -18 -24 -18 -29 0 -13 -78 -112 -109 -138 -14 -12 -22
-22 -17 -23 6 0 1 -7 -10 -16 -10 -8 -13 -12 -5 -8 9 5 12 3 7 -4 -10 -17 -49
-16 -40 1 5 8 3 8 -7 -1 -12 -11 -11 -15 4 -26 9 -7 17 -17 17 -22 0 -4 -5 -3
-12 4 -8 8 -16 6 -30 -10 -15 -17 -16 -24 -5 -37 10 -14 10 -14 -5 -3 -9 8
-14 20 -11 28 3 8 -1 14 -10 14 -9 0 -26 15 -38 33 -13 17 -26 34 -29 37 -3 3
-23 28 -45 55 -54 68 -61 75 -70 67 -5 -4 -5 -2 -2 4 8 14 -21 56 -34 48 -5
-3 -16 0 -24 6 -18 15 -20 34 -3 24 7 -4 8 -3 4 5 -6 9 -11 9 -22 0 -8 -6 -14
-8 -14 -3 0 4 -11 -7 -25 -26 -13 -18 -22 -37 -19 -42 3 -5 1 -7 -5 -6 -6 2
-19 -9 -28 -23 -23 -34 -164 -222 -205 -272 -22 -27 -34 -35 -41 -28 -8 8 -7
15 1 23 13 13 16 50 5 61 -3 4 -13 1 -21 -5 -31 -26 -60 -20 -99 21 -21 21
-114 110 -208 197 -93 87 -177 167 -187 179 -9 11 -19 17 -22 14 -4 -3 12 -23
34 -43 22 -20 37 -36 33 -36 -5 1 -30 21 -57 45 -26 25 -41 42 -32 39 32 -12
15 7 -44 50 -40 30 -66 42 -80 39 -14 -4 -20 0 -20 11 0 10 -4 15 -9 12 -15
-10 -63 13 -55 26 4 6 3 8 -4 4 -6 -3 -44 5 -85 19 -90 30 -237 42 -322 26
-67 -13 -165 -50 -165 -63 0 -5 -5 -6 -11 -2 -6 3 -24 -3 -40 -15 -15 -11 -32
-21 -37 -21 -5 0 -22 -11 -38 -25 -16 -14 -33 -25 -38 -25 -4 0 -17 -12 -28
-26 -11 -14 -26 -23 -32 -21 -13 5 -38 -18 -28 -27 3 -4 -1 -4 -11 0 -11 4
-17 1 -17 -8 0 -8 -15 -22 -33 -32 -57 -30 -82 -46 -74 -46 14 0 -25 -49 -44
-55 -10 -4 -36 -23 -58 -43 -22 -20 -62 -58 -90 -84 -28 -26 -51 -52 -51 -58
0 -6 -4 -9 -9 -6 -5 3 -14 -1 -21 -9 -7 -8 -18 -15 -24 -15 -6 1 -5 6 4 13 8
7 37 38 65 67 27 30 4 10 -52 -44 -67 -65 -99 -104 -96 -114 4 -8 -4 -22 -18
-33 -24 -18 -24 -17 -52 8 -30 30 -37 21 -10 -11 18 -20 17 -20 -2 -6 -24 18
-35 32 -30 40 2 3 -9 5 -25 6 l-28 1 29 -79 c16 -43 29 -86 29 -96 -1 -17 -11
7 -55 128 -30 81 -31 58 -4 -55 11 -48 18 -90 15 -93 -3 -3 -6 3 -6 14 -1 18
-1 18 -12 -1 -13 -22 -24 -37 -50 -66 -10 -10 -18 -22 -18 -26 0 -11 -21 -33
-68 -71 -23 -18 -44 -42 -47 -53 -4 -10 -21 -26 -38 -35 -18 -8 -47 -23 -65
-32 l-32 -18 91 -17 c108 -21 153 -41 69 -32 -30 4 -68 10 -85 15 -90 25 -292
14 -355 -20 -11 -6 -26 -8 -32 -4 -6 4 -8 3 -5 -3 3 -5 -9 -17 -28 -26 -19 -9
-35 -14 -35 -12 0 3 17 21 37 40 l37 35 -27 0 c-15 0 -44 -7 -63 -15 -20 -8
-40 -12 -45 -9 -5 3 -9 0 -9 -5 0 -6 -3 -10 -8 -10 -24 4 -104 -2 -99 -7 7 -8
-21 -30 -76 -62 -39 -23 -40 -15 -3 27 l21 24 -25 -14 c-32 -17 -62 -14 -148
15 -31 11 -50 22 -46 28 4 7 2 8 -4 4 -6 -4 -22 0 -35 9 -13 8 -27 13 -30 10
-4 -3 -5 -2 -2 1 2 4 -23 23 -56 43 -131 77 -197 170 -239 336 -23 91 -27 100
-50 103 -18 2 -21 0 -12 -6 12 -8 11 -15 -3 -43 -22 -41 -31 -177 -17 -239 15
-61 8 -62 -12 -1 -17 51 -23 170 -12 212 5 17 4 20 -3 9 -5 -8 -15 -50 -22
-93 -33 -198 50 -405 219 -541 77 -62 217 -146 276 -166 32 -10 41 -24 18 -25
-4 -1 -28 -4 -54 -9 -43 -6 -48 -10 -48 -33 0 -15 10 -37 22 -50 12 -13 23
-31 24 -40 3 -20 -14 -45 -26 -38 -9 5 -28 -38 -33 -75 -5 -32 15 -115 36
-157 9 -18 31 -45 49 -62 31 -29 31 -31 19 -70 -6 -23 -9 -47 -5 -53 4 -6 3
-8 -2 -5 -11 6 -100 -190 -96 -210 1 -6 -2 -14 -8 -18 -6 -4 -7 1 -3 12 5 14
-1 12 -23 -8 -16 -14 -48 -37 -72 -52 -23 -16 -48 -40 -53 -55 -16 -41 -6
-141 19 -191 12 -25 22 -59 22 -75 0 -86 40 -143 106 -152 75 -10 84 -14 101
-48 42 -79 99 -102 268 -105 123 -3 169 16 217 87 18 27 56 67 83 89 43 34 61
41 135 52 100 15 162 34 245 73 33 15 66 28 74 28 19 0 10 -31 -70 -220 -65
-156 -72 -168 -138 -235 -80 -81 -87 -94 -111 -189 -51 -200 -113 -296 -265
-406 -71 -51 -86 -67 -95 -99 -6 -22 -7 -46 -4 -55 4 -12 -5 -21 -38 -35 -64
-27 -101 -63 -172 -165 -94 -135 -137 -232 -118 -263 14 -22 68 -35 191 -44
134 -9 434 3 534 22 l57 12 0 113 0 114 29 0 c41 0 77 15 86 37 4 10 14 58 21
108 25 157 104 292 238 403 45 36 104 87 131 113 51 47 303 219 321 219 6 0
35 -19 65 -41 68 -52 149 -89 210 -96 l48 -6 7 -46 c11 -75 -9 -184 -51 -268
-28 -57 -61 -100 -137 -179 -95 -98 -101 -107 -106 -152 -4 -45 -7 -49 -46
-68 -53 -26 -102 -91 -176 -237 -66 -130 -76 -178 -38 -198 88 -47 666 -50
781 -4 29 12 35 44 30 139 l-6 87 49 43 49 43 2 120 c2 140 10 177 66 293 30
60 62 106 109 155 36 38 86 97 110 130 56 76 215 225 240 225 25 0 197 65 269
100 54 28 58 28 206 26 198 -4 224 -18 254 -136 15 -61 25 -70 74 -70 61 0
142 57 296 206 l129 126 22 -24 c13 -14 60 -53 105 -87 86 -65 105 -97 88
-153 -26 -86 -176 -238 -302 -305 -96 -51 -125 -81 -132 -134 -6 -39 -9 -42
-58 -61 -41 -15 -62 -32 -106 -86 -73 -90 -127 -177 -143 -229 -13 -43 -13
-44 12 -53 37 -14 242 -27 385 -25 166 4 257 14 275 32 10 11 14 40 14 109 l0
94 43 0 c55 0 66 9 111 95 76 141 135 206 346 381 165 137 227 202 236 249 7
37 -11 79 -46 110 -38 34 -60 94 -60 168 0 87 15 116 89 167 33 22 63 44 66
50 11 18 23 11 125 -81 117 -105 251 -195 400 -269 115 -58 177 -113 248 -216
113 -167 151 -304 121 -432 -7 -35 -6 -50 6 -75 14 -27 14 -32 1 -39 -77 -43
-226 -332 -190 -368 6 -6 53 -17 105 -26 73 -12 138 -15 294 -10 297 8 300 10
300 128 0 65 -5 93 -23 129 -29 59 -28 96 3 141 47 69 45 83 -33 241 -84 169
-109 250 -167 546 -29 148 -50 230 -61 243 -10 10 -42 32 -71 49 -65 37 -126
111 -141 170 -6 24 -13 121 -16 214 -5 154 -15 238 -45 393 -29 148 -98 315
-182 444 l-50 76 15 46 c35 103 11 216 -63 299 -49 54 -131 110 -281 192 -113
61 -182 132 -205 207 -18 61 -18 71 -4 122 15 55 47 82 113 96 61 13 144 1
201 -27 72 -37 164 -124 222 -210 100 -149 192 -316 223 -404 65 -181 105
-244 192 -302 81 -53 153 -71 269 -64 98 5 139 17 139 41 0 7 -11 18 -25 24
-40 18 -74 82 -101 193 -29 117 -68 187 -120 219 -19 12 -72 28 -120 35 -125
21 -160 48 -238 191 -205 372 -384 507 -646 491 -83 -5 -158 -26 -143 -41 4
-4 0 -4 -8 -1 -18 7 -72 -32 -64 -46 4 -5 0 -6 -8 -4 -15 6 -66 -60 -90 -116
-23 -57 -30 -132 -17 -196 29 -143 123 -249 310 -348 63 -33 131 -72 152 -88
38 -27 67 -71 55 -83 -3 -4 -59 14 -124 39 -201 78 -415 130 -461 112 -9 -3
-66 -8 -126 -10 -70 -2 -102 0 -86 5 16 6 5 6 -30 2 -150 -18 -359 1 -347 32
5 13 193 282 582 835 94 133 196 278 227 324 32 45 62 83 68 85 5 2 38 -19 73
-46 75 -60 98 -72 132 -72 67 0 70 10 85 255 5 88 14 223 20 300 19 265 29
447 23 461 -6 17 -19 18 -29 3z m-2559 -1139 c11 -18 -2 -10 -36 21 l-34 31
32 -21 c18 -12 35 -26 38 -31z m-375 -36 c17 -18 -3 -60 -43 -89 -79 -57 -141
-95 -157 -95 -8 0 -44 -20 -80 -45 -36 -25 -83 -57 -105 -72 -104 -69 -275
-248 -260 -273 3 -5 1 -10 -6 -10 -10 0 -10 -3 -1 -12 10 -10 15 -10 20 -1 4
6 19 14 34 18 15 4 34 15 44 26 9 10 23 19 29 19 7 0 18 7 25 15 7 8 24 15 39
15 14 0 35 7 45 15 11 8 29 15 41 15 12 0 70 25 130 55 59 30 114 55 121 55
16 0 18 -28 4 -50 -5 -8 -6 -17 -2 -20 4 -3 12 -18 18 -35 6 -18 16 -29 25
-26 8 1 23 5 34 7 11 2 49 10 85 19 84 19 129 19 136 0 12 -30 -17 -111 -54
-152 -20 -23 -50 -58 -67 -79 -16 -21 -46 -55 -65 -75 -19 -21 -64 -72 -100
-114 -98 -116 -112 -118 -111 -15 0 69 -37 150 -69 150 -27 0 -197 -89 -223
-116 -12 -13 -28 -24 -35 -24 -7 0 -29 -11 -50 -24 -20 -12 -48 -27 -62 -31
-14 -4 -41 -20 -60 -35 -19 -15 -78 -41 -130 -58 -58 -19 -96 -36 -100 -47 -3
-9 -7 24 -8 73 -2 92 -22 175 -68 282 -13 30 -18 47 -10 37 12 -16 52 -14 42
2 -3 4 49 67 115 141 66 74 128 151 138 170 26 49 183 202 228 222 21 9 32 17
25 17 -7 1 -10 6 -7 11 4 6 10 8 14 5 5 -2 16 4 26 15 10 11 27 20 37 20 12 0
18 6 16 18 -2 12 5 18 22 20 14 2 32 9 40 16 25 21 122 59 165 66 42 6 161
-12 175 -26z m2825 -264 c-11 -5 -32 -9 -47 -9 -46 -2 -136 -42 -174 -79 -20
-20 -48 -60 -62 -90 -22 -49 -24 -63 -19 -131 l6 -76 -24 30 c-36 43 -41 86
-19 158 24 81 106 168 180 191 52 16 195 21 159 6z m-3871 -138 c3 -5 -1 -9
-9 -9 -8 0 -12 4 -9 9 3 4 7 8 9 8 2 0 6 -4 9 -8z m2026 -29 c0 -10 -4 -24 -9
-32 -8 -12 -12 -12 -25 -2 -9 8 -16 17 -16 22 0 11 23 7 32 -6 4 -5 8 0 8 13
0 12 2 22 5 22 3 0 5 -8 5 -17z m-2063 -6 c0 -8 -6 -14 -14 -14 -9 0 -10 4 -2
14 6 7 12 13 14 13 1 0 2 -6 2 -13z m-140 -249 c-3 -8 -6 -5 -6 6 -1 11 2 17
5 13 3 -3 4 -12 1 -19z m2596 -79 c32 -38 55 -69 51 -69 -9 0 -90 50 -121 76
-22 17 -24 23 -14 42 6 12 15 22 19 21 4 0 33 -32 65 -70z m-2586 39 c-3 -8
-6 -5 -6 6 -1 11 2 17 5 13 3 -3 4 -12 1 -19z m1510 -109 c6 -6 10 -17 8 -23
-2 -6 -6 -23 -9 -37 -5 -21 -26 -36 -123 -84 -104 -52 -128 -69 -203 -144 -98
-99 -161 -189 -216 -313 -22 -51 -45 -89 -55 -91 -21 -6 -60 -68 -79 -125 -32
-100 -34 -38 -3 88 29 114 48 147 146 253 15 17 27 34 27 38 0 12 164 176 225
224 28 22 52 44 54 49 4 10 58 70 79 89 8 7 24 21 37 32 28 25 77 54 91 55 5
0 15 -5 21 -11z m-1562 -128 c-30 -60 -81 -91 -147 -91 l-43 1 70 30 c78 33
122 70 132 109 4 14 8 20 10 13 2 -6 -7 -34 -22 -62z m-1333 -21 c20 -11 39
-24 43 -30 10 -17 123 -90 139 -90 8 0 28 -8 45 -17 32 -19 41 -52 19 -71 -20
-16 -116 2 -190 36 -87 39 -134 76 -147 113 -9 28 -9 30 9 24 25 -8 25 -8 0
43 -28 58 -25 69 13 38 17 -14 49 -35 69 -46z m6222 40 c27 -10 28 -11 10 -24
-18 -14 -18 -15 6 -34 28 -22 26 -26 -10 -35 -20 -5 -35 3 -77 43 -29 27 -53
55 -53 61 0 14 78 7 124 -11z m-84 -89 c0 -12 -6 -9 -20 9 -26 33 -26 48 0 25
11 -10 20 -25 20 -34z m-51 12 c10 -10 22 -38 26 -63 7 -40 6 -43 -8 -32 -9 7
-27 35 -41 63 -21 40 -23 49 -11 49 9 0 24 -8 34 -17z m-1432 1 c-3 -3 -12 -4
-19 -1 -8 3 -5 6 6 6 11 1 17 -2 13 -5z m-59 -11 c-16 -2 -40 -2 -55 0 -16 2
-3 4 27 4 30 0 43 -2 28 -4z m1581 -38 c0 -5 -6 -1 -14 9 -8 11 -15 24 -15 30
0 5 7 1 15 -10 8 -10 14 -23 14 -29z m-5208 1 c37 -1 70 -4 74 -8 9 -9 -16
-107 -30 -117 -5 -4 -36 -15 -67 -24 -44 -14 -66 -28 -97 -63 -22 -25 -38 -51
-35 -58 3 -8 21 -22 40 -32 19 -10 34 -22 34 -27 0 -4 -4 -6 -9 -3 -19 12 -33
-24 -29 -76 l3 -52 -55 -27 c-51 -24 -118 -88 -162 -152 -14 -20 -25 -25 -53
-23 -58 5 -66 18 -46 77 10 28 29 57 42 66 13 9 26 20 29 23 10 13 49 30 69
30 27 0 101 78 101 106 0 33 -14 37 -67 19 -99 -34 -174 -85 -179 -123 -1 -9
-12 -44 -24 -77 -17 -46 -21 -72 -16 -115 6 -55 6 -55 -10 -26 -11 20 -15 45
-12 83 3 29 1 53 -3 53 -11 0 -19 -40 -19 -98 0 -45 -3 -54 -22 -61 -37 -14
-42 3 -25 76 22 87 73 189 110 216 16 12 38 32 50 44 25 24 82 134 91 175 4
19 15 30 32 34 14 4 46 28 71 55 25 27 53 49 62 49 23 1 61 35 61 55 0 10 5
13 11 9 7 -4 42 -7 80 -8z m329 -41 c-38 -39 -203 -128 -228 -123 -21 4 -31
54 -19 90 13 41 67 51 67 12 0 -15 16 -19 24 -5 3 4 23 11 45 15 21 3 58 15
82 25 63 28 67 26 29 -14z m1642 0 c14 -26 15 -37 6 -73 -6 -26 -20 -50 -34
-59 -13 -8 -24 -24 -24 -35 0 -10 -4 -17 -9 -14 -12 8 -119 -110 -168 -186
-15 -23 -32 -47 -36 -53 -5 -5 -21 -32 -35 -59 -19 -35 -39 -56 -67 -70 -48
-25 -64 -55 -76 -144 -5 -37 -14 -68 -19 -70 -6 -2 -10 -10 -10 -18 0 -18 -14
-18 -30 1 -7 8 -16 12 -21 9 -5 -3 -9 12 -9 32 0 56 22 218 30 224 4 3 10 36
13 74 4 42 12 75 22 85 22 22 59 80 76 119 7 17 19 32 26 32 7 0 19 15 28 34
15 30 83 94 162 151 34 24 111 53 137 51 11 0 28 -15 38 -31z m2732 17 c3 -5
8 -29 11 -53 5 -33 4 -40 -4 -29 -6 8 -11 11 -12 5 -1 -5 -5 4 -9 20 -4 17
-11 38 -15 48 -5 12 -3 17 8 17 9 0 18 -4 21 -8z m-36 -70 c2 -15 -2 -22 -12
-22 -11 0 -16 9 -16 26 0 31 23 28 28 -4z m-630 -23 c34 -13 27 -36 -33 -97
-30 -31 -55 -64 -55 -73 0 -9 -7 -22 -15 -29 -7 -6 -17 -33 -20 -58 -8 -65
-24 -122 -34 -122 -13 0 -21 26 -21 65 0 18 -9 54 -19 79 -11 24 -19 64 -19
88 0 39 -4 46 -48 84 -27 24 -45 46 -42 50 18 17 266 28 306 13z m-1210 -30
c53 -6 111 -17 128 -25 37 -18 94 -85 94 -111 0 -40 -109 -121 -144 -107 -7 3
-29 -4 -47 -15 -34 -21 -85 -27 -104 -13 -11 8 -46 58 -57 82 -14 31 -8 -11 7
-47 8 -19 15 -52 14 -72 0 -30 -3 -25 -19 34 -10 39 -26 90 -35 114 -18 51
-13 68 5 19 l13 -33 9 55 c11 69 27 130 34 130 3 0 48 -5 102 -11z m-1953 -19
c3 -5 1 -10 -4 -10 -6 0 -11 5 -11 10 0 6 2 10 4 10 3 0 8 -4 11 -10z m-172
-7 c-7 -2 -19 -2 -25 0 -7 3 -2 5 12 5 14 0 19 -2 13 -5z m133 -10 c-11 -11
-76 -31 -70 -22 3 5 19 13 37 18 42 12 41 12 33 4z m1260 -96 c25 -22 26 -27
20 -72 -7 -43 -17 -58 -89 -134 -82 -87 -158 -151 -176 -151 -6 0 -14 -6 -18
-14 -4 -8 -26 -16 -48 -18 -35 -3 -40 0 -43 20 -4 23 94 202 110 202 4 0 19
18 33 39 38 60 141 151 172 151 7 0 24 -10 39 -23z m-1481 -14 c-66 -34 -115
-55 -115 -48 0 7 140 74 155 74 6 0 -12 -12 -40 -26z m-1368 -30 c-3 -10 -5
-4 -5 12 0 17 2 24 5 18 2 -7 2 -21 0 -30z m1587 -75 c-49 -86 -142 -147 -232
-153 l-57 -4 57 9 c79 13 127 40 184 104 50 56 61 66 48 44z m-1644 -23 c-13
-14 -26 -23 -28 -20 -5 5 36 45 46 45 3 0 -5 -11 -18 -25z m185 -109 c-32 -75
-38 -86 -53 -86 -10 0 -13 7 -8 23 3 12 6 27 6 33 0 5 14 32 32 60 25 38 33
45 36 30 2 -10 -4 -37 -13 -60z m4814 35 c7 -15 11 -50 9 -77 l-3 -49 -42 63
c-53 78 -54 92 -9 92 28 0 36 -5 45 -29z m-4987 -108 l-5 -101 -20 19 c-17 16
-21 30 -19 72 2 57 19 110 33 101 5 -3 9 0 9 7 0 7 2 10 4 8 2 -2 1 -50 -2
-106z m48 19 c-1 -20 -7 -50 -16 -67 l-14 -30 5 40 c3 22 5 55 5 73 0 20 4 31
10 27 6 -3 10 -23 10 -43z m707 -116 c-27 -58 -54 -79 -121 -92 -45 -8 -43 10
1 19 48 11 87 42 112 91 32 65 39 50 8 -18z m-107 9 c0 -8 -4 -15 -10 -15 -5
0 -10 7 -10 15 0 8 5 15 10 15 6 0 10 -7 10 -15z m220 -78 c-28 -63 -35 -60
-10 6 11 28 20 54 21 57 0 3 3 0 5 -6 2 -6 -5 -31 -16 -57z m-633 -4 c28 -32
29 -53 5 -79 -25 -27 -33 -61 -16 -68 15 -6 11 -54 -8 -92 -19 -39 -7 -59 39
-62 35 -3 42 -7 46 -30 7 -36 -5 -42 -83 -42 -48 0 -79 -7 -119 -25 -52 -24
-85 -28 -42 -5 12 6 21 15 21 21 0 6 -7 6 -19 -1 -27 -14 -31 -13 -31 10 0 12
7 20 16 20 9 0 14 6 11 13 -2 6 5 27 15 45 10 18 18 43 18 55 0 12 16 53 36
91 19 39 32 76 29 83 -2 8 0 11 5 8 9 -5 15 24 11 49 -2 8 28 35 39 36 2 0 15
-12 27 -27z m319 -105 c-1 -18 -8 -24 -38 -29 -23 -3 -45 -16 -57 -30 -19 -24
-81 -65 -81 -54 0 3 9 22 19 43 45 89 161 140 157 70z m-585 -85 c-12 -20 -14
-14 -5 12 4 9 9 14 11 11 3 -2 0 -13 -6 -23z m-30 -66 c-10 -9 -11 -8 -5 6 3
10 9 15 12 12 3 -3 0 -11 -7 -18z m3020 -6 c-8 -5 -16 -20 -18 -33 -2 -14 0
-18 5 -11 6 10 12 10 27 -1 18 -13 18 -15 -9 -47 -54 -64 -96 -109 -103 -109
-22 0 -371 -344 -379 -373 -9 -33 -98 -99 -113 -84 -9 9 -11 8 -5 -7 5 -13 1
-23 -15 -35 -12 -9 -23 -24 -24 -31 -2 -8 -6 -21 -10 -27 -5 -7 -5 -17 -2 -23
3 -5 1 -10 -5 -10 -13 0 -10 -46 11 -163 14 -83 8 -93 -58 -90 -38 1 -51 -3
-70 -23 -37 -40 -47 -66 -49 -124 -2 -52 -11 -78 -70 -206 -21 -47 -31 -78
-54 -174 -16 -68 -33 -105 -57 -126 -19 -17 -24 -28 -20 -46 12 -45 -10 -59
-99 -64 -60 -3 -85 0 -100 11 -21 16 -19 17 55 20 33 1 49 8 63 26 11 13 32
38 47 54 37 40 52 70 55 108 2 18 9 46 16 62 7 17 13 42 14 57 0 14 5 26 9 25
8 -2 71 163 73 191 1 6 2 19 3 27 0 9 13 27 27 42 22 22 24 27 11 42 -22 24
-28 54 -14 71 14 17 72 51 84 49 30 -5 41 4 51 42 8 32 7 41 -4 46 -8 3 -14
12 -14 20 0 24 53 188 62 191 4 2 8 15 8 28 0 13 5 24 10 24 6 0 10 4 10 9 0
16 79 179 90 186 6 3 10 14 10 24 0 10 7 24 15 31 8 7 12 16 9 21 -3 5 1 9 9
9 7 0 23 9 35 20 12 11 27 20 34 20 7 1 35 23 63 50 35 35 52 46 58 37 6 -8 7
-7 4 3 -5 17 16 52 29 49 5 -1 16 -1 24 1 11 1 9 4 -5 10 -19 8 -19 9 3 9 12
1 22 7 22 15 0 8 7 16 15 20 8 3 15 12 15 21 0 9 9 15 23 15 12 0 29 5 37 10
13 9 13 11 0 20 -13 9 -13 11 0 19 8 6 12 12 9 15 -7 7 -101 -25 -157 -53 -23
-12 -42 -19 -42 -16 0 10 128 69 220 101 90 32 164 46 131 25z m-2708 -160
c21 -3 2 -20 -29 -25 -57 -11 -129 -62 -172 -123 -13 -18 -28 -33 -33 -33 -18
0 -4 45 24 76 15 18 33 39 40 47 21 27 109 68 136 63 14 -2 29 -5 34 -5z
m-487 -72 c20 28 22 27 67 -14 44 -40 40 -39 75 -21 15 7 39 16 55 20 25 6 27
4 27 -22 0 -16 -5 -44 -11 -61 -11 -30 -14 -32 -48 -28 -62 8 -161 33 -170 43
-5 5 -11 32 -14 59 -2 28 -2 39 0 26 l5 -23 14 21z m534 -104 c-10 -42 -22
-59 -74 -97 -59 -43 -64 -33 -8 17 27 24 57 60 66 80 21 44 26 44 16 0z m895
-245 c3 -5 2 -10 -4 -10 -6 0 -19 -19 -30 -42 -32 -68 -101 -191 -119 -210
-19 -22 -32 -23 -32 -3 0 17 7 30 65 121 22 35 53 84 68 109 29 45 41 53 52
35z m-278 -411 c15 -15 -31 -101 -85 -158 l-43 -46 7 35 c6 34 56 142 76 168
13 15 30 16 45 1z m-148 -271 c-12 -24 -46 -80 -75 -125 -30 -46 -54 -87 -54
-92 0 -5 -16 -23 -35 -40 -19 -17 -35 -33 -35 -36 0 -3 -11 -20 -25 -39 -14
-18 -25 -41 -25 -50 0 -15 -6 -16 -32 -11 -18 4 -44 12 -57 17 -25 9 -25 9 15
33 21 13 47 25 56 25 23 0 74 54 99 103 22 42 131 209 157 240 27 31 33 18 11
-25z m5303 -237 c9 -28 13 -52 10 -55 -3 -3 -20 -6 -39 -6 -31 0 -33 2 -33 35
0 37 18 75 35 75 6 0 18 -22 27 -49z m18 -146 c40 -21 38 -24 -12 -14 -24 4
-46 8 -50 9 -5 0 -8 5 -8 10 0 15 37 12 70 -5z m0 -55 c10 -7 11 -13 4 -17
-12 -10 -37 -61 -70 -150 -51 -136 -74 -170 -108 -157 -12 4 -11 14 5 59 10
30 19 62 19 71 0 9 6 30 14 47 8 18 21 52 31 77 28 74 63 97 105 70z m-5616
-24 c46 -19 57 -39 14 -24 -39 13 -78 38 -60 38 7 0 28 -6 46 -14z m-39 -100
c-17 -19 -51 -69 -74 -112 -23 -44 -47 -88 -54 -99 -6 -11 -18 -31 -27 -45 -8
-14 -15 -29 -15 -35 0 -14 -85 -19 -98 -6 -8 8 -1 24 21 56 18 25 32 52 32 60
0 7 4 16 9 19 5 3 18 26 30 51 12 25 44 68 71 96 44 44 53 49 93 49 l44 0 -32
-34z m-261 -8 c-4 -7 -18 -27 -30 -43 -13 -17 -46 -73 -73 -125 -28 -52 -51
-91 -51 -87 0 22 72 161 110 211 39 51 62 74 44 44z m5667 -21 c-10 -9 -11 -8
-5 6 3 10 9 15 12 12 3 -3 0 -11 -7 -18z m-3958 -58 c29 -16 49 -29 45 -29
-13 0 -153 53 -163 62 -21 20 68 -5 118 -33z m-296 -66 c-51 -66 -106 -165
-133 -238 -18 -51 -34 -79 -41 -72 -18 19 137 309 185 347 39 31 37 24 -11
-37z m4216 42 c-3 -9 -8 -14 -10 -11 -3 3 -2 9 2 15 9 16 15 13 8 -4z m-3955
-8 c25 -14 27 -8 -34 -85 -12 -15 -24 -39 -28 -54 -3 -16 -10 -28 -15 -28 -5
0 -12 -13 -16 -28 -3 -15 -16 -39 -28 -52 -13 -14 -26 -33 -30 -42 -3 -10 -11
-18 -17 -18 -7 0 -9 -13 -4 -35 l6 -35 -43 1 c-24 1 -55 5 -69 9 -24 8 -24 8
-2 9 20 1 28 16 23 44 -1 4 5 10 13 13 8 3 13 11 10 19 -3 7 2 15 10 18 8 3
20 16 27 29 10 20 10 22 -2 13 -8 -5 -6 -2 4 7 10 10 20 23 21 30 1 7 7 23 14
34 6 12 8 24 5 28 -3 3 -2 6 3 6 6 0 21 22 35 50 13 27 27 50 31 50 4 0 5 7 2
15 -8 19 50 20 84 2z"/>
<path d="M4292 4940 c0 -14 2 -19 5 -12 2 6 2 18 0 25 -3 6 -5 1 -5 -13z"/>
<path d="M6560 3658 c0 -16 5 -28 10 -28 13 0 13 20 0 40 -8 12 -10 9 -10 -12z"/>
<path d="M4387 2403 c-4 -3 -7 -11 -7 -17 0 -6 5 -5 12 2 6 6 9 14 7 17 -3 3
-9 2 -12 -2z"/>
<path d="M4218 5183 c6 -2 18 -2 25 0 6 3 1 5 -13 5 -14 0 -19 -2 -12 -5z"/>
<path d="M6297 5079 c-4 -13 -10 -18 -18 -13 -8 4 -10 3 -5 -5 4 -6 12 -9 17
-6 14 9 31 45 21 45 -6 0 -12 -9 -15 -21z"/>
<path d="M6240 4995 c-7 -9 -11 -17 -9 -20 3 -2 10 5 17 15 14 24 10 26 -8 5z"/>
<path d="M5459 4763 c0 -5 -2 -16 -4 -26 -2 -11 -1 -16 3 -13 8 8 14 46 7 46
-3 0 -5 -3 -6 -7z"/>
<path d="M5373 4625 c0 -8 4 -12 9 -9 5 3 6 10 3 15 -9 13 -12 11 -12 -6z"/>
<path d="M5320 4561 c0 -25 6 -27 13 -6 4 8 2 17 -3 20 -6 4 -10 -3 -10 -14z"/>
<path d="M2954 4268 l-19 -23 23 19 c12 11 22 21 22 23 0 8 -8 2 -26 -19z"/>
<path d="M2869 4173 l-34 -38 38 34 c20 19 37 36 37 38 0 8 -8 0 -41 -34z"/>
<path d="M6510 3980 c-18 -12 -2 -12 25 0 13 6 15 9 5 9 -8 0 -22 -4 -30 -9z"/>
<path d="M1910 3960 c8 -5 20 -10 25 -10 6 0 3 5 -5 10 -8 5 -19 10 -25 10 -5
0 -3 -5 5 -10z"/>
</g>
</svg>
